<svg xmlns="http://www.w3.org/2000/svg" xmlns:xlink="http://www.w3.org/1999/xlink" version="1.1" x="0px" y="0px" viewBox="0 0 32 32" style="enable-background:new 0 0 32 32; fill: #fff;" xml:space="preserve"><title>paste</title><path d="M27,12H17c-1.7,0-3,1.3-3,3v12c0,0.3,0.1,0.7,0.2,1c0.4,1.2,1.6,2,2.8,2h10c1.7,0,3-1.3,3-3V15  C30,13.3,28.7,12,27,12z M24,24h-4c-0.6,0-1-0.4-1-1s0.4-1,1-1h4c0.6,0,1,0.4,1,1S24.6,24,24,24z M24,20h-4c-0.6,0-1-0.4-1-1  s0.4-1,1-1h4c0.6,0,1,0.4,1,1S24.6,20,24,20z M17,10h6V8c-0.1-1.7-1.5-3.1-3.3-3h-3c-0.8-2.3-3.4-3.6-5.7-2.7C9.7,2.7,8.7,3.7,8.3,5  h-3C3.5,4.9,2.1,6.3,2,8v19c0.1,1.7,1.5,3.1,3.3,3H13c-0.3-0.4-0.5-0.8-0.7-1.3C12.1,28.1,12,27.6,12,27V15C12,12.2,14.2,10,17,10z   M10,6.5C10,5.1,11.1,4,12.5,4S15,5.1,15,6.5S13.9,9,12.5,9S10,7.9,10,6.5z"></path></svg>
